<svg width="36" height="36" viewBox="0 0 36 36" fill="none" xmlns="http://www.w3.org/2000/svg">
<path d="M30.5005 20.625L25.2505 20.625L25.2505 9.25L30.5005 9.25C30.7326 9.25 30.9551 9.34219 31.1192 9.50628C31.2833 9.67037 31.3755 9.89294 31.3755 10.125L31.3755 19.75C31.3755 19.9821 31.2833 20.2046 31.1192 20.3687C30.9551 20.5328 30.7326 20.625 30.5005 20.625Z" fill="#D0ACB2" stroke="white" stroke-linecap="round" stroke-linejoin="round"/>
<path d="M25.2505 20.625L20.8755 29.375C20.4159 29.375 19.9607 29.2845 19.5361 29.1086C19.1115 28.9327 18.7256 28.6749 18.4006 28.3499C18.0756 28.0249 17.8178 27.639 17.6419 27.2144C17.466 26.7898 17.3755 26.3346 17.3755 25.875V23.25L10.6079 23.25C10.3597 23.25 10.1144 23.1972 9.88823 23.0952C9.66204 22.9932 9.46014 22.8442 9.29592 22.6582C9.1317 22.4721 9.00892 22.2533 8.93572 22.0162C8.86253 21.7791 8.84059 21.5292 8.87137 21.2829L10.1839 10.7829C10.2368 10.3597 10.4424 9.97034 10.7622 9.68806C11.082 9.40578 11.4938 9.25 11.9204 9.25L25.2505 9.25" fill="#D0ACB2"/>
<path d="M25.2505 20.625L20.8755 29.375C20.4159 29.375 19.9607 29.2845 19.5361 29.1086C19.1115 28.9327 18.7256 28.6749 18.4006 28.3499C18.0756 28.0249 17.8178 27.639 17.6419 27.2144C17.466 26.7898 17.3755 26.3346 17.3755 25.875V23.25L10.6079 23.25C10.3597 23.25 10.1144 23.1972 9.88823 23.0952C9.66204 22.9932 9.46014 22.8442 9.29592 22.6582C9.1317 22.4721 9.00892 22.2533 8.93572 22.0162C8.86253 21.7791 8.84059 21.5292 8.87137 21.2829L10.1839 10.7829C10.2368 10.3597 10.4424 9.97034 10.7622 9.68806C11.082 9.40578 11.4938 9.25 11.9204 9.25L25.2505 9.25" stroke="white" stroke-linecap="round" stroke-linejoin="round"/>
</svg>
