<svg width="36" height="36" viewBox="0 0 36 36" fill="none" xmlns="http://www.w3.org/2000/svg">
<path d="M5.49951 15.375H10.7495V26.75H5.49951C5.26745 26.75 5.04489 26.6578 4.88079 26.4937C4.7167 26.3296 4.62451 26.1071 4.62451 25.875V16.25C4.62451 16.0179 4.7167 15.7954 4.88079 15.6313C5.04489 15.4672 5.26745 15.375 5.49951 15.375Z" fill="#ACD0C0" stroke="white" stroke-linecap="round" stroke-linejoin="round"/>
<path d="M10.7495 15.375L15.1245 6.625C15.5841 6.625 16.0393 6.71553 16.4639 6.89142C16.8885 7.06731 17.2744 7.32512 17.5994 7.65013C17.9244 7.97513 18.1822 8.36097 18.3581 8.78561C18.534 9.21025 18.6245 9.66537 18.6245 10.125V12.75H25.3921C25.6403 12.75 25.8856 12.8028 26.1118 12.9048C26.338 13.0068 26.5399 13.1558 26.7041 13.3418C26.8683 13.5279 26.9911 13.7467 27.0643 13.9838C27.1375 14.2209 27.1594 14.4708 27.1286 14.7171L25.8161 25.2171C25.7632 25.6403 25.5576 26.0297 25.2378 26.3119C24.918 26.5942 24.5062 26.75 24.0796 26.75H10.7495" fill="#ACD0C0"/>
<path d="M10.7495 15.375L15.1245 6.625C15.5841 6.625 16.0393 6.71553 16.4639 6.89142C16.8885 7.06731 17.2744 7.32512 17.5994 7.65013C17.9244 7.97513 18.1822 8.36097 18.3581 8.78561C18.534 9.21025 18.6245 9.66537 18.6245 10.125V12.75H25.3921C25.6403 12.75 25.8856 12.8028 26.1118 12.9048C26.338 13.0068 26.5399 13.1558 26.7041 13.3418C26.8683 13.5279 26.9911 13.7467 27.0643 13.9838C27.1375 14.2209 27.1594 14.4708 27.1286 14.7171L25.8161 25.2171C25.7632 25.6403 25.5576 26.0297 25.2378 26.3119C24.918 26.5942 24.5062 26.75 24.0796 26.75H10.7495" stroke="white" stroke-linecap="round" stroke-linejoin="round"/>
</svg>
